<?xml version="1.0" standalone="no"?>
<!DOCTYPE svg PUBLIC "-//W3C//DTD SVG 20010904//EN"
 "http://www.w3.org/TR/2001/REC-SVG-20010904/DTD/svg10.dtd">
<svg version="1.0" xmlns="http://www.w3.org/2000/svg"
 width="88.000000pt" height="32.000000pt" viewBox="0 0 88.000000 32.000000"
 preserveAspectRatio="xMidYMid meet">

<g transform="translate(0.000000,32.000000) scale(0.100000,-0.100000)"
fill="#000000" stroke="none">
<path d="M215 195 c-210 -114 -210 -114 -213 -150 l-3 -36 48 24 c26 14 124
66 216 116 93 50 173 91 178 91 5 0 96 -47 202 -103 105 -57 202 -109 215
-116 23 -12 23 -11 20 24 l-3 37 -210 114 c-115 62 -217 113 -225 113 -8 0
-109 -51 -225 -114z"/>
</g>
</svg>
