<?xml version="1.0" standalone="no"?>
<!DOCTYPE svg PUBLIC "-//W3C//DTD SVG 20010904//EN"
 "http://www.w3.org/TR/2001/REC-SVG-20010904/DTD/svg10.dtd">
<svg version="1.0" xmlns="http://www.w3.org/2000/svg"
 width="97.000000pt" height="168.000000pt" viewBox="0 0 97.000000 168.000000"
 preserveAspectRatio="xMidYMid meet">

<g transform="translate(0.000000,168.000000) scale(0.100000,-0.100000)"
fill="#000000" stroke="none">
<path d="M467 1259 c-251 -226 -457 -415 -457 -419 0 -16 915 -831 930 -828 8
2 15 10 15 18 0 8 -196 191 -435 407 -239 216 -435 397 -435 403 0 6 196 187
435 403 239 216 435 399 435 407 0 8 -7 16 -15 18 -9 1 -212 -174 -473 -409z"/>
</g>
</svg>
