<?xml version="1.0" standalone="no"?>
<!DOCTYPE svg PUBLIC "-//W3C//DTD SVG 20010904//EN"
 "http://www.w3.org/TR/2001/REC-SVG-20010904/DTD/svg10.dtd">
<svg version="1.0" xmlns="http://www.w3.org/2000/svg"
 width="97.000000pt" height="168.000000pt" viewBox="0 0 97.000000 168.000000"
 preserveAspectRatio="xMidYMid meet">

<g transform="translate(0.000000,168.000000) scale(0.100000,-0.100000)"
fill="#000000" stroke="none">
<path d="M15 1659 c-4 -5 1 -19 12 -31 10 -11 208 -192 441 -401 232 -210 421
-385 420 -389 -2 -5 -199 -185 -438 -401 -239 -216 -435 -399 -435 -407 0 -8
7 -16 15 -18 15 -3 930 812 930 828 0 13 -912 830 -926 830 -7 0 -16 -5 -19
-11z"/>
</g>
</svg>
