<svg width="210" height="32" viewBox="0 0 210 32" fill="none" xmlns="http://www.w3.org/2000/svg">
<path d="M4.796 12.984H12.176V12.624H4.796V4.524H8.36C10.808 4.524 13.508 5.064 14.66 6.648V4.164H0.836V21.516C0.836 23.748 2.528 24 4.004 24H4.796V12.984ZM21.932 8.196C19.592 8.196 17.864 8.916 16.28 9.924V12.804C17.396 10.608 18.872 8.556 21.464 8.556C23.48 8.556 24.524 9.744 24.524 11.112C24.524 12.624 23.408 13.848 22.148 14.496C19.016 16.116 13.976 16.404 13.976 20.4C13.976 22.632 15.776 24.36 18.152 24.36C20.852 24.36 23.228 22.776 24.488 21.768C24.488 23.316 25.28 24.36 26.828 24.36C27.908 24.36 29.06 23.892 29.492 23.316C28.556 23.568 28.088 23.1 28.088 21.876V16.476H27.872C27.188 18.744 25.964 20.796 24.488 21.768C22.184 23.352 18.116 22.668 18.116 19.212C18.08 17.016 19.88 15.864 21.968 15C24.776 13.812 28.124 13.2 28.124 11.4C28.124 9.348 25.028 8.196 21.932 8.196ZM41.7874 22.164C41.7874 23.64 40.1314 24 38.9434 24C36.0634 24.036 33.5794 22.236 32.2114 19.752V22.632C33.6874 23.568 35.9554 24.36 38.6554 24.36C41.8234 24.36 44.7394 23.208 44.7394 20.148C44.7394 15.612 34.9114 13.236 34.9114 10.428C34.9114 9.276 36.0634 8.556 37.5034 8.556C39.5194 8.556 42.1474 9.744 43.5514 12.444V9.564C42.2554 8.772 40.0234 8.196 37.8994 8.196C34.9834 8.196 32.2114 9.312 32.2114 12.336C32.2114 16.728 41.7874 18.708 41.7874 22.164ZM58.9307 21.516C58.9307 23.748 60.6587 24 62.1347 24H62.8907V12.84C62.8907 9.708 61.1627 8.196 58.1747 8.196C57.0227 8.196 55.9787 8.448 55.0067 8.916C55.9427 7.908 56.6627 6.432 56.6627 4.704C56.6627 1.536 54.8267 0.0599992 52.8467 0.0599992C50.0387 0.0599992 48.3827 2.616 48.3827 5.208V21.516C48.3827 23.748 50.0747 24 51.5507 24H52.3427V11.184L52.8107 10.788C53.9987 9.78 55.0427 9.168 56.1587 9.168C57.5987 9.168 58.9307 10.248 58.9307 12.876C58.9307 16.872 58.9307 17.52 58.9307 21.516ZM52.3427 4.344C52.3427 2.724 53.2427 1.86 54.1787 1.86C55.2227 1.86 56.3027 2.76 56.3027 4.74C56.3027 6.504 55.2227 8.556 54.1067 9.42C53.6387 9.708 53.1707 10.032 52.7387 10.392L52.3427 10.716V4.344ZM66.9638 4.164C66.9638 5.316 67.7558 6.108 68.9078 6.108C70.0958 6.108 70.8518 5.316 70.8518 4.164C70.8518 2.976 70.0958 2.22 68.9078 2.22C67.7558 2.22 66.9638 2.976 66.9638 4.164ZM66.8918 21.516C66.8918 23.712 68.5838 24 70.0598 24H70.8518V11.04C70.8518 8.844 69.1238 8.556 67.6478 8.556H66.8918V21.516ZM82.0807 24.36C87.4087 24.36 90.0367 20.688 90.0367 16.296C90.0367 11.904 87.3727 8.196 82.0807 8.196C76.7887 8.196 74.1247 11.904 74.1247 16.296C74.1247 20.688 76.7887 24.36 82.0807 24.36ZM82.0807 8.556C84.4927 8.556 85.7167 12.012 85.7167 16.26C85.7167 20.472 84.5287 24 82.0807 24C79.6687 24 78.4447 20.472 78.4447 16.26C78.4447 12.012 79.6687 8.556 82.0807 8.556ZM103.911 21.516C103.911 23.712 105.603 24 107.079 24H107.871V12.84C107.871 9.708 106.143 8.196 103.155 8.196C101.031 8.196 99.339 9.06 97.719 10.392L97.323 10.752C97.179 8.808 95.559 8.556 94.119 8.556H93.363V21.516C93.363 23.712 95.055 24 96.531 24H97.323V11.184L97.791 10.788C98.979 9.78 100.023 9.168 101.139 9.168C102.543 9.168 103.911 10.248 103.911 12.876V21.516ZM122.852 4.164C124.796 4.164 127.424 5.532 128.684 8.412V5.532C127.28 4.488 125.12 3.804 123.068 3.804C120.296 3.804 116.3 4.704 116.3 8.124C116.3 9.636 117.344 11.436 118.964 13.344C115.076 14.208 113.06 16.512 113.06 18.852C113.06 23.316 119.108 24.792 122.6 24.792C124.796 24.792 126.452 24.252 127.748 23.388C128.972 24.396 130.772 25.044 132.536 25.044C139.484 25.044 140.852 14.496 135.56 14.496C132.68 14.496 130.844 16.512 129.152 18.708L122.78 11.292C121.7 10.032 119.972 8.412 119.972 6.468C119.972 4.992 121.448 4.164 122.852 4.164ZM126.56 22.164C125.372 23.496 124.076 24.504 122.384 24.504C119.468 24.504 116.66 21.804 116.66 18.564C116.66 16.548 117.452 14.532 119.072 13.452L126.56 22.164ZM130.592 20.4C132.392 17.736 133.292 14.856 135.56 14.856C139.916 14.856 139.016 23.352 134.696 23.352C133.112 23.352 131.672 21.66 130.592 20.4ZM155.571 19.212C155.571 12.984 143.295 11.4 143.295 6.864C143.295 5.1 145.275 4.164 147.183 4.164C149.631 4.164 152.727 5.532 154.275 8.412V5.532C152.583 4.488 149.991 3.804 147.543 3.804C144.159 3.804 140.559 5.28 140.559 8.952C140.559 14.64 152.691 16.404 152.691 21.012C152.691 23.172 150.531 24 148.695 24C145.707 24 142.143 22.452 140.559 19.752V22.632C142.287 23.676 145.275 24.36 148.155 24.36C152.007 24.36 155.571 22.884 155.571 19.212ZM164.23 8.952H167.11V8.592H164.23V8.556C164.23 6.36 162.25 5.856 160.846 5.388L160.27 5.208V6.504C160.27 8.556 160.198 8.592 158.47 8.592V8.952H159.334C160.27 8.952 160.27 8.952 160.27 9.96V20.94C160.27 23.352 161.746 24.36 163.474 24.36C164.878 24.36 166.426 23.604 167.398 22.416C167.002 22.74 166.354 22.992 165.778 22.992C164.41 22.992 164.23 22.164 164.23 21.084V8.952ZM177.48 24.396C176.364 23.676 174.96 23.316 173.52 23.316C169.164 23.316 167.004 25.872 167.004 28.212C167.004 29.832 168.192 31.488 170.46 31.488C173.736 31.488 176.652 27.168 177.876 24.36L184.968 8.556H184.572L179.532 19.824L174.312 10.248C173.628 8.988 173.16 8.556 171.648 8.556H168.876L177.48 24.396ZM177.48 24.432C176.58 26.7 173.916 29.652 171.144 29.652C168.984 29.652 168.012 28.464 168.012 27.24C168.012 24.54 171.288 23.676 173.556 23.676C175.572 23.676 177.048 24.288 177.48 24.432ZM187.877 21.516C187.877 23.712 189.569 24 191.045 24H191.837V3.372C191.837 1.176 190.109 0.923999 188.633 0.923999H187.877V21.516ZM209.871 14.208C209.547 10.032 206.091 8.196 202.959 8.196C199.143 8.196 195.111 10.608 195.111 16.26C195.111 21.408 198.963 24.324 202.743 24.324C205.587 24.324 208.359 22.668 209.439 19.14C208.503 20.724 206.955 21.516 205.335 21.516C201.267 21.516 198.927 17.916 198.891 14.208H209.871ZM198.891 13.848C198.999 10.068 200.943 8.556 202.815 8.556C204.651 8.556 206.199 9.924 206.199 11.76C206.199 12.372 206.091 13.164 205.695 13.848H198.891Z" fill="black"/>
</svg>
